%TF.GenerationSoftware,KiCad,Pcbnew,9.0.7*%
%TF.CreationDate,2026-09-21T20:37:49-04:00*%
%TF.ProjectId,gpio_trigger,6770696f-5f74-4726-9967-6765722e6b69,rev?*%
%TF.SameCoordinates,Original*%
%TF.FileFunction,Legend,Top*%
%TF.FilePolarity,Positive*%
%FSLAX46Y46*%
G04 Gerber Fmt 4.6, Leading zero omitted, Abs format (unit mm)*
G04 Created by KiCad (PCBNEW 9.0.7) date 2026-09-21 20:37:49*
%MOMM*%
%LPD*%
G01*
G04 APERTURE LIST*
%ADD10C,0.000000*%
%ADD11C,0.120000*%
%ADD12C,0.150000*%
%ADD13C,0.100000*%
G04 APERTURE END LIST*
D10*
G36*
X33669000Y-56109000D02*
G01*
X24964000Y-56109000D01*
X24964000Y-57699000D01*
X28259000Y-57699000D01*
X26447000Y-60417000D01*
X24964000Y-60417000D01*
X24964000Y-64304000D01*
X22000000Y-68750000D01*
X22000000Y-68335000D01*
X22126000Y-68335000D01*
X24839000Y-64266000D01*
X24839000Y-60292000D01*
X26380000Y-60292000D01*
X28025000Y-57825000D01*
X24839000Y-57825000D01*
X24839000Y-55983000D01*
X33602000Y-55983000D01*
X35410000Y-53270000D01*
X22126000Y-53270000D01*
X22126000Y-68335000D01*
X22000000Y-68335000D01*
X22000000Y-53145000D01*
X35645000Y-53145000D01*
X33669000Y-56109000D01*
G37*
G36*
X46172000Y-62546000D02*
G01*
X45515000Y-62546000D01*
X45105000Y-61766000D01*
X42438000Y-61766000D01*
X42028000Y-62546000D01*
X41371000Y-62546000D01*
X42082464Y-61274000D01*
X42889000Y-61274000D01*
X44654000Y-61274000D01*
X43771000Y-59715000D01*
X42889000Y-61274000D01*
X42082464Y-61274000D01*
X43299000Y-59099000D01*
X44243000Y-59099000D01*
X46172000Y-62546000D01*
G37*
G36*
X50808000Y-61766000D02*
G01*
X50808000Y-59099000D01*
X51424000Y-59099000D01*
X51424000Y-62546000D01*
X50644000Y-62546000D01*
X47444000Y-60002000D01*
X47444000Y-62546000D01*
X46828000Y-62546000D01*
X46828000Y-59099000D01*
X47608000Y-59099000D01*
X50808000Y-61766000D01*
G37*
G36*
X33534000Y-55858000D02*
G01*
X24713000Y-55858000D01*
X24713000Y-57950000D01*
X27790000Y-57950000D01*
X26313000Y-60166000D01*
X24713000Y-60166000D01*
X24713000Y-64228000D01*
X22251000Y-67921000D01*
X22251000Y-53396000D01*
X35176000Y-53396000D01*
X33534000Y-55858000D01*
G37*
G36*
X34523000Y-60347000D02*
G01*
X35467000Y-61404000D01*
X36705000Y-63101000D01*
X37151000Y-63639000D01*
X37738000Y-64151000D01*
X38452000Y-64556000D01*
X39380000Y-64888000D01*
X40502000Y-65145000D01*
X42313000Y-65396000D01*
X44694000Y-65577000D01*
X47614000Y-65688000D01*
X51569000Y-65741000D01*
X51831000Y-65824000D01*
X51969000Y-65966000D01*
X52000000Y-66142000D01*
X51886000Y-66342000D01*
X51688000Y-66443000D01*
X51446000Y-66489000D01*
X46509000Y-66773000D01*
X43373000Y-66899000D01*
X40277000Y-66901000D01*
X39181000Y-66833000D01*
X38197000Y-66711000D01*
X37494000Y-66567000D01*
X36838000Y-66368000D01*
X36259000Y-66120000D01*
X35703000Y-65804000D01*
X34801000Y-65116000D01*
X32633000Y-63146000D01*
X30180000Y-66777000D01*
X26579000Y-66777000D01*
X26664127Y-66651000D01*
X26815000Y-66651000D01*
X30114000Y-66651000D01*
X32608000Y-62958000D01*
X34854000Y-64996000D01*
X35772000Y-65699000D01*
X36314000Y-66008000D01*
X36881000Y-66250000D01*
X37525000Y-66445000D01*
X38218000Y-66587000D01*
X39251000Y-66714000D01*
X40494000Y-66783000D01*
X43978000Y-66755000D01*
X51435000Y-66363000D01*
X51733000Y-66292000D01*
X51874000Y-66125000D01*
X51799000Y-65954000D01*
X51557000Y-65867000D01*
X47992000Y-65822000D01*
X44991000Y-65718000D01*
X42697000Y-65560000D01*
X40965000Y-65351000D01*
X39675000Y-65097000D01*
X38612000Y-64760000D01*
X37796000Y-64342000D01*
X37141000Y-63809000D01*
X36641000Y-63225000D01*
X35315000Y-61417000D01*
X34361000Y-60362000D01*
X39187000Y-53229000D01*
X35889000Y-53229000D01*
X32706000Y-57935000D01*
X31718000Y-56471000D01*
X28173000Y-56471000D01*
X30933000Y-60556000D01*
X26815000Y-66651000D01*
X26664127Y-66651000D01*
X30782000Y-60556000D01*
X27937000Y-56345000D01*
X31785000Y-56345000D01*
X32706000Y-57711000D01*
X35822000Y-53104000D01*
X39423000Y-53104000D01*
X34523000Y-60347000D01*
G37*
G36*
X34203000Y-60371000D02*
G01*
X35244000Y-61528000D01*
X36560000Y-63326000D01*
X37052000Y-63897000D01*
X37755000Y-64465000D01*
X38602000Y-64892000D01*
X39695000Y-65231000D01*
X41075000Y-65495000D01*
X42604000Y-65677000D01*
X44481000Y-65817000D01*
X47734000Y-65942000D01*
X51547000Y-65992000D01*
X51701000Y-66039000D01*
X51744000Y-66123000D01*
X51479000Y-66232000D01*
X50613000Y-66289000D01*
X46124000Y-66540000D01*
X43075000Y-66655000D01*
X40218000Y-66647000D01*
X39087000Y-66573000D01*
X38142000Y-66447000D01*
X37472000Y-66302000D01*
X36851000Y-66105000D01*
X36305000Y-65863000D01*
X35780000Y-65554000D01*
X34936000Y-64901000D01*
X32583000Y-62771000D01*
X30047000Y-66526000D01*
X27052000Y-66526000D01*
X31085000Y-60556000D01*
X28410000Y-56596000D01*
X31651000Y-56596000D01*
X32706000Y-58160000D01*
X35955000Y-53355000D01*
X38950000Y-53355000D01*
X34203000Y-60371000D01*
G37*
G36*
X41132000Y-59153000D02*
G01*
X41292000Y-59263000D01*
X41456000Y-59499000D01*
X41535000Y-59740000D01*
X41553000Y-60458000D01*
X41486000Y-60718000D01*
X41339000Y-60978000D01*
X41189000Y-61108000D01*
X40946000Y-61188000D01*
X38089000Y-61192000D01*
X38089000Y-62546000D01*
X37514000Y-62546000D01*
X37514000Y-60781000D01*
X38089000Y-60781000D01*
X40786000Y-60775000D01*
X40955000Y-60627000D01*
X41002000Y-60166000D01*
X40955000Y-59705000D01*
X40786000Y-59558000D01*
X38089000Y-59551000D01*
X38089000Y-60781000D01*
X37514000Y-60781000D01*
X37514000Y-59099000D01*
X40879000Y-59099000D01*
X41132000Y-59153000D01*
G37*
D11*
X72926566Y-61087664D02*
X72888470Y-61125760D01*
X72888470Y-61125760D02*
X72774185Y-61163855D01*
X72774185Y-61163855D02*
X72697994Y-61163855D01*
X72697994Y-61163855D02*
X72583708Y-61125760D01*
X72583708Y-61125760D02*
X72507518Y-61049569D01*
X72507518Y-61049569D02*
X72469423Y-60973379D01*
X72469423Y-60973379D02*
X72431327Y-60820998D01*
X72431327Y-60820998D02*
X72431327Y-60706712D01*
X72431327Y-60706712D02*
X72469423Y-60554331D01*
X72469423Y-60554331D02*
X72507518Y-60478140D01*
X72507518Y-60478140D02*
X72583708Y-60401950D01*
X72583708Y-60401950D02*
X72697994Y-60363855D01*
X72697994Y-60363855D02*
X72774185Y-60363855D01*
X72774185Y-60363855D02*
X72888470Y-60401950D01*
X72888470Y-60401950D02*
X72926566Y-60440045D01*
X73231327Y-60935283D02*
X73612280Y-60935283D01*
X73155137Y-61163855D02*
X73421804Y-60363855D01*
X73421804Y-60363855D02*
X73688470Y-61163855D01*
X73955137Y-61163855D02*
X73955137Y-60363855D01*
X73955137Y-60363855D02*
X74221803Y-60935283D01*
X74221803Y-60935283D02*
X74488470Y-60363855D01*
X74488470Y-60363855D02*
X74488470Y-61163855D01*
X75440851Y-60440045D02*
X75478947Y-60401950D01*
X75478947Y-60401950D02*
X75555137Y-60363855D01*
X75555137Y-60363855D02*
X75745613Y-60363855D01*
X75745613Y-60363855D02*
X75821804Y-60401950D01*
X75821804Y-60401950D02*
X75859899Y-60440045D01*
X75859899Y-60440045D02*
X75897994Y-60516236D01*
X75897994Y-60516236D02*
X75897994Y-60592426D01*
X75897994Y-60592426D02*
X75859899Y-60706712D01*
X75859899Y-60706712D02*
X75402756Y-61163855D01*
X75402756Y-61163855D02*
X75897994Y-61163855D01*
X72926566Y-50887664D02*
X72888470Y-50925760D01*
X72888470Y-50925760D02*
X72774185Y-50963855D01*
X72774185Y-50963855D02*
X72697994Y-50963855D01*
X72697994Y-50963855D02*
X72583708Y-50925760D01*
X72583708Y-50925760D02*
X72507518Y-50849569D01*
X72507518Y-50849569D02*
X72469423Y-50773379D01*
X72469423Y-50773379D02*
X72431327Y-50620998D01*
X72431327Y-50620998D02*
X72431327Y-50506712D01*
X72431327Y-50506712D02*
X72469423Y-50354331D01*
X72469423Y-50354331D02*
X72507518Y-50278140D01*
X72507518Y-50278140D02*
X72583708Y-50201950D01*
X72583708Y-50201950D02*
X72697994Y-50163855D01*
X72697994Y-50163855D02*
X72774185Y-50163855D01*
X72774185Y-50163855D02*
X72888470Y-50201950D01*
X72888470Y-50201950D02*
X72926566Y-50240045D01*
X73231327Y-50735283D02*
X73612280Y-50735283D01*
X73155137Y-50963855D02*
X73421804Y-50163855D01*
X73421804Y-50163855D02*
X73688470Y-50963855D01*
X73955137Y-50963855D02*
X73955137Y-50163855D01*
X73955137Y-50163855D02*
X74221803Y-50735283D01*
X74221803Y-50735283D02*
X74488470Y-50163855D01*
X74488470Y-50163855D02*
X74488470Y-50963855D01*
X75897994Y-50963855D02*
X75440851Y-50963855D01*
X75669423Y-50963855D02*
X75669423Y-50163855D01*
X75669423Y-50163855D02*
X75593232Y-50278140D01*
X75593232Y-50278140D02*
X75517042Y-50354331D01*
X75517042Y-50354331D02*
X75440851Y-50392426D01*
D12*
X22485714Y-21554819D02*
X21914286Y-21554819D01*
X22200000Y-21554819D02*
X22200000Y-20554819D01*
X22200000Y-20554819D02*
X22104762Y-20697676D01*
X22104762Y-20697676D02*
X22009524Y-20792914D01*
X22009524Y-20792914D02*
X21914286Y-20840533D01*
D13*
X46465789Y-23243800D02*
X46408646Y-23272371D01*
X46408646Y-23272371D02*
X46294360Y-23272371D01*
X46294360Y-23272371D02*
X46237217Y-23243800D01*
X46237217Y-23243800D02*
X46208646Y-23215228D01*
X46208646Y-23215228D02*
X46180074Y-23158085D01*
X46180074Y-23158085D02*
X46180074Y-22986657D01*
X46180074Y-22986657D02*
X46208646Y-22929514D01*
X46208646Y-22929514D02*
X46237217Y-22900942D01*
X46237217Y-22900942D02*
X46294360Y-22872371D01*
X46294360Y-22872371D02*
X46408646Y-22872371D01*
X46408646Y-22872371D02*
X46465789Y-22900942D01*
X46980075Y-22872371D02*
X46980075Y-23272371D01*
X46722932Y-22872371D02*
X46722932Y-23186657D01*
X46722932Y-23186657D02*
X46751503Y-23243800D01*
X46751503Y-23243800D02*
X46808646Y-23272371D01*
X46808646Y-23272371D02*
X46894360Y-23272371D01*
X46894360Y-23272371D02*
X46951503Y-23243800D01*
X46951503Y-23243800D02*
X46980075Y-23215228D01*
X47180074Y-22872371D02*
X47408646Y-22872371D01*
X47265789Y-22672371D02*
X47265789Y-23186657D01*
X47265789Y-23186657D02*
X47294360Y-23243800D01*
X47294360Y-23243800D02*
X47351503Y-23272371D01*
X47351503Y-23272371D02*
X47408646Y-23272371D01*
X47637217Y-23243800D02*
X47637217Y-23272371D01*
X47637217Y-23272371D02*
X47608646Y-23329514D01*
X47608646Y-23329514D02*
X47580074Y-23358085D01*
X48322931Y-22729514D02*
X48351503Y-22700942D01*
X48351503Y-22700942D02*
X48408646Y-22672371D01*
X48408646Y-22672371D02*
X48551503Y-22672371D01*
X48551503Y-22672371D02*
X48608646Y-22700942D01*
X48608646Y-22700942D02*
X48637217Y-22729514D01*
X48637217Y-22729514D02*
X48665788Y-22786657D01*
X48665788Y-22786657D02*
X48665788Y-22843800D01*
X48665788Y-22843800D02*
X48637217Y-22929514D01*
X48637217Y-22929514D02*
X48294360Y-23272371D01*
X48294360Y-23272371D02*
X48665788Y-23272371D01*
X48922932Y-23043800D02*
X49380075Y-23043800D01*
X49608646Y-22672371D02*
X49980074Y-22672371D01*
X49980074Y-22672371D02*
X49780074Y-22900942D01*
X49780074Y-22900942D02*
X49865789Y-22900942D01*
X49865789Y-22900942D02*
X49922932Y-22929514D01*
X49922932Y-22929514D02*
X49951503Y-22958085D01*
X49951503Y-22958085D02*
X49980074Y-23015228D01*
X49980074Y-23015228D02*
X49980074Y-23158085D01*
X49980074Y-23158085D02*
X49951503Y-23215228D01*
X49951503Y-23215228D02*
X49922932Y-23243800D01*
X49922932Y-23243800D02*
X49865789Y-23272371D01*
X49865789Y-23272371D02*
X49694360Y-23272371D01*
X49694360Y-23272371D02*
X49637217Y-23243800D01*
X49637217Y-23243800D02*
X49608646Y-23215228D01*
X50694361Y-22958085D02*
X51151504Y-22958085D01*
X51151504Y-23129514D02*
X50694361Y-23129514D01*
X52065789Y-22672371D02*
X52065789Y-23100942D01*
X52065789Y-23100942D02*
X52037218Y-23186657D01*
X52037218Y-23186657D02*
X51980075Y-23243800D01*
X51980075Y-23243800D02*
X51894361Y-23272371D01*
X51894361Y-23272371D02*
X51837218Y-23272371D01*
X52322932Y-22729514D02*
X52351504Y-22700942D01*
X52351504Y-22700942D02*
X52408647Y-22672371D01*
X52408647Y-22672371D02*
X52551504Y-22672371D01*
X52551504Y-22672371D02*
X52608647Y-22700942D01*
X52608647Y-22700942D02*
X52637218Y-22729514D01*
X52637218Y-22729514D02*
X52665789Y-22786657D01*
X52665789Y-22786657D02*
X52665789Y-22843800D01*
X52665789Y-22843800D02*
X52637218Y-22929514D01*
X52637218Y-22929514D02*
X52294361Y-23272371D01*
X52294361Y-23272371D02*
X52665789Y-23272371D01*
X53637219Y-23272371D02*
X53637219Y-22958085D01*
X53637219Y-22958085D02*
X53608647Y-22900942D01*
X53608647Y-22900942D02*
X53551504Y-22872371D01*
X53551504Y-22872371D02*
X53437219Y-22872371D01*
X53437219Y-22872371D02*
X53380076Y-22900942D01*
X53637219Y-23243800D02*
X53580076Y-23272371D01*
X53580076Y-23272371D02*
X53437219Y-23272371D01*
X53437219Y-23272371D02*
X53380076Y-23243800D01*
X53380076Y-23243800D02*
X53351504Y-23186657D01*
X53351504Y-23186657D02*
X53351504Y-23129514D01*
X53351504Y-23129514D02*
X53380076Y-23072371D01*
X53380076Y-23072371D02*
X53437219Y-23043800D01*
X53437219Y-23043800D02*
X53580076Y-23043800D01*
X53580076Y-23043800D02*
X53637219Y-23015228D01*
X54008647Y-23272371D02*
X53951504Y-23243800D01*
X53951504Y-23243800D02*
X53922933Y-23186657D01*
X53922933Y-23186657D02*
X53922933Y-22672371D01*
X54322933Y-23272371D02*
X54265790Y-23243800D01*
X54265790Y-23243800D02*
X54237219Y-23215228D01*
X54237219Y-23215228D02*
X54208647Y-23158085D01*
X54208647Y-23158085D02*
X54208647Y-22986657D01*
X54208647Y-22986657D02*
X54237219Y-22929514D01*
X54237219Y-22929514D02*
X54265790Y-22900942D01*
X54265790Y-22900942D02*
X54322933Y-22872371D01*
X54322933Y-22872371D02*
X54408647Y-22872371D01*
X54408647Y-22872371D02*
X54465790Y-22900942D01*
X54465790Y-22900942D02*
X54494362Y-22929514D01*
X54494362Y-22929514D02*
X54522933Y-22986657D01*
X54522933Y-22986657D02*
X54522933Y-23158085D01*
X54522933Y-23158085D02*
X54494362Y-23215228D01*
X54494362Y-23215228D02*
X54465790Y-23243800D01*
X54465790Y-23243800D02*
X54408647Y-23272371D01*
X54408647Y-23272371D02*
X54322933Y-23272371D01*
X54780076Y-22872371D02*
X54780076Y-23272371D01*
X54780076Y-22929514D02*
X54808647Y-22900942D01*
X54808647Y-22900942D02*
X54865790Y-22872371D01*
X54865790Y-22872371D02*
X54951504Y-22872371D01*
X54951504Y-22872371D02*
X55008647Y-22900942D01*
X55008647Y-22900942D02*
X55037219Y-22958085D01*
X55037219Y-22958085D02*
X55037219Y-23272371D01*
X55551504Y-23243800D02*
X55494361Y-23272371D01*
X55494361Y-23272371D02*
X55380076Y-23272371D01*
X55380076Y-23272371D02*
X55322933Y-23243800D01*
X55322933Y-23243800D02*
X55294361Y-23186657D01*
X55294361Y-23186657D02*
X55294361Y-22958085D01*
X55294361Y-22958085D02*
X55322933Y-22900942D01*
X55322933Y-22900942D02*
X55380076Y-22872371D01*
X55380076Y-22872371D02*
X55494361Y-22872371D01*
X55494361Y-22872371D02*
X55551504Y-22900942D01*
X55551504Y-22900942D02*
X55580076Y-22958085D01*
X55580076Y-22958085D02*
X55580076Y-23015228D01*
X55580076Y-23015228D02*
X55294361Y-23072371D01*
X46380074Y-20072371D02*
X46380074Y-20500942D01*
X46380074Y-20500942D02*
X46351503Y-20586657D01*
X46351503Y-20586657D02*
X46294360Y-20643800D01*
X46294360Y-20643800D02*
X46208646Y-20672371D01*
X46208646Y-20672371D02*
X46151503Y-20672371D01*
X46665789Y-20672371D02*
X46665789Y-20072371D01*
X46665789Y-20072371D02*
X46894360Y-20072371D01*
X46894360Y-20072371D02*
X46951503Y-20100942D01*
X46951503Y-20100942D02*
X46980074Y-20129514D01*
X46980074Y-20129514D02*
X47008646Y-20186657D01*
X47008646Y-20186657D02*
X47008646Y-20272371D01*
X47008646Y-20272371D02*
X46980074Y-20329514D01*
X46980074Y-20329514D02*
X46951503Y-20358085D01*
X46951503Y-20358085D02*
X46894360Y-20386657D01*
X46894360Y-20386657D02*
X46665789Y-20386657D01*
X47580074Y-20672371D02*
X47237217Y-20672371D01*
X47408646Y-20672371D02*
X47408646Y-20072371D01*
X47408646Y-20072371D02*
X47351503Y-20158085D01*
X47351503Y-20158085D02*
X47294360Y-20215228D01*
X47294360Y-20215228D02*
X47237217Y-20243800D01*
X48208646Y-20272371D02*
X48437218Y-20272371D01*
X48294361Y-20672371D02*
X48294361Y-20158085D01*
X48294361Y-20158085D02*
X48322932Y-20100942D01*
X48322932Y-20100942D02*
X48380075Y-20072371D01*
X48380075Y-20072371D02*
X48437218Y-20072371D01*
X48722932Y-20672371D02*
X48665789Y-20643800D01*
X48665789Y-20643800D02*
X48637218Y-20615228D01*
X48637218Y-20615228D02*
X48608646Y-20558085D01*
X48608646Y-20558085D02*
X48608646Y-20386657D01*
X48608646Y-20386657D02*
X48637218Y-20329514D01*
X48637218Y-20329514D02*
X48665789Y-20300942D01*
X48665789Y-20300942D02*
X48722932Y-20272371D01*
X48722932Y-20272371D02*
X48808646Y-20272371D01*
X48808646Y-20272371D02*
X48865789Y-20300942D01*
X48865789Y-20300942D02*
X48894361Y-20329514D01*
X48894361Y-20329514D02*
X48922932Y-20386657D01*
X48922932Y-20386657D02*
X48922932Y-20558085D01*
X48922932Y-20558085D02*
X48894361Y-20615228D01*
X48894361Y-20615228D02*
X48865789Y-20643800D01*
X48865789Y-20643800D02*
X48808646Y-20672371D01*
X48808646Y-20672371D02*
X48722932Y-20672371D01*
X49437218Y-20643800D02*
X49380075Y-20672371D01*
X49380075Y-20672371D02*
X49265789Y-20672371D01*
X49265789Y-20672371D02*
X49208646Y-20643800D01*
X49208646Y-20643800D02*
X49180075Y-20615228D01*
X49180075Y-20615228D02*
X49151503Y-20558085D01*
X49151503Y-20558085D02*
X49151503Y-20386657D01*
X49151503Y-20386657D02*
X49180075Y-20329514D01*
X49180075Y-20329514D02*
X49208646Y-20300942D01*
X49208646Y-20300942D02*
X49265789Y-20272371D01*
X49265789Y-20272371D02*
X49380075Y-20272371D01*
X49380075Y-20272371D02*
X49437218Y-20300942D01*
X49951504Y-20272371D02*
X49951504Y-20672371D01*
X49694361Y-20272371D02*
X49694361Y-20586657D01*
X49694361Y-20586657D02*
X49722932Y-20643800D01*
X49722932Y-20643800D02*
X49780075Y-20672371D01*
X49780075Y-20672371D02*
X49865789Y-20672371D01*
X49865789Y-20672371D02*
X49922932Y-20643800D01*
X49922932Y-20643800D02*
X49951504Y-20615228D01*
X50208646Y-20643800D02*
X50265789Y-20672371D01*
X50265789Y-20672371D02*
X50380075Y-20672371D01*
X50380075Y-20672371D02*
X50437218Y-20643800D01*
X50437218Y-20643800D02*
X50465789Y-20586657D01*
X50465789Y-20586657D02*
X50465789Y-20558085D01*
X50465789Y-20558085D02*
X50437218Y-20500942D01*
X50437218Y-20500942D02*
X50380075Y-20472371D01*
X50380075Y-20472371D02*
X50294361Y-20472371D01*
X50294361Y-20472371D02*
X50237218Y-20443800D01*
X50237218Y-20443800D02*
X50208646Y-20386657D01*
X50208646Y-20386657D02*
X50208646Y-20358085D01*
X50208646Y-20358085D02*
X50237218Y-20300942D01*
X50237218Y-20300942D02*
X50294361Y-20272371D01*
X50294361Y-20272371D02*
X50380075Y-20272371D01*
X50380075Y-20272371D02*
X50437218Y-20300942D01*
X51808646Y-20072371D02*
X51808646Y-20500942D01*
X51808646Y-20500942D02*
X51780075Y-20586657D01*
X51780075Y-20586657D02*
X51722932Y-20643800D01*
X51722932Y-20643800D02*
X51637218Y-20672371D01*
X51637218Y-20672371D02*
X51580075Y-20672371D01*
X52094361Y-20672371D02*
X52094361Y-20072371D01*
X52094361Y-20072371D02*
X52322932Y-20072371D01*
X52322932Y-20072371D02*
X52380075Y-20100942D01*
X52380075Y-20100942D02*
X52408646Y-20129514D01*
X52408646Y-20129514D02*
X52437218Y-20186657D01*
X52437218Y-20186657D02*
X52437218Y-20272371D01*
X52437218Y-20272371D02*
X52408646Y-20329514D01*
X52408646Y-20329514D02*
X52380075Y-20358085D01*
X52380075Y-20358085D02*
X52322932Y-20386657D01*
X52322932Y-20386657D02*
X52094361Y-20386657D01*
X52665789Y-20129514D02*
X52694361Y-20100942D01*
X52694361Y-20100942D02*
X52751504Y-20072371D01*
X52751504Y-20072371D02*
X52894361Y-20072371D01*
X52894361Y-20072371D02*
X52951504Y-20100942D01*
X52951504Y-20100942D02*
X52980075Y-20129514D01*
X52980075Y-20129514D02*
X53008646Y-20186657D01*
X53008646Y-20186657D02*
X53008646Y-20243800D01*
X53008646Y-20243800D02*
X52980075Y-20329514D01*
X52980075Y-20329514D02*
X52637218Y-20672371D01*
X52637218Y-20672371D02*
X53008646Y-20672371D01*
X53694361Y-20643800D02*
X53751504Y-20672371D01*
X53751504Y-20672371D02*
X53865790Y-20672371D01*
X53865790Y-20672371D02*
X53922933Y-20643800D01*
X53922933Y-20643800D02*
X53951504Y-20586657D01*
X53951504Y-20586657D02*
X53951504Y-20558085D01*
X53951504Y-20558085D02*
X53922933Y-20500942D01*
X53922933Y-20500942D02*
X53865790Y-20472371D01*
X53865790Y-20472371D02*
X53780076Y-20472371D01*
X53780076Y-20472371D02*
X53722933Y-20443800D01*
X53722933Y-20443800D02*
X53694361Y-20386657D01*
X53694361Y-20386657D02*
X53694361Y-20358085D01*
X53694361Y-20358085D02*
X53722933Y-20300942D01*
X53722933Y-20300942D02*
X53780076Y-20272371D01*
X53780076Y-20272371D02*
X53865790Y-20272371D01*
X53865790Y-20272371D02*
X53922933Y-20300942D01*
X54208647Y-20672371D02*
X54208647Y-20072371D01*
X54465790Y-20672371D02*
X54465790Y-20358085D01*
X54465790Y-20358085D02*
X54437218Y-20300942D01*
X54437218Y-20300942D02*
X54380075Y-20272371D01*
X54380075Y-20272371D02*
X54294361Y-20272371D01*
X54294361Y-20272371D02*
X54237218Y-20300942D01*
X54237218Y-20300942D02*
X54208647Y-20329514D01*
X55008647Y-20272371D02*
X55008647Y-20672371D01*
X54751504Y-20272371D02*
X54751504Y-20586657D01*
X54751504Y-20586657D02*
X54780075Y-20643800D01*
X54780075Y-20643800D02*
X54837218Y-20672371D01*
X54837218Y-20672371D02*
X54922932Y-20672371D01*
X54922932Y-20672371D02*
X54980075Y-20643800D01*
X54980075Y-20643800D02*
X55008647Y-20615228D01*
X55208646Y-20272371D02*
X55437218Y-20272371D01*
X55294361Y-20072371D02*
X55294361Y-20586657D01*
X55294361Y-20586657D02*
X55322932Y-20643800D01*
X55322932Y-20643800D02*
X55380075Y-20672371D01*
X55380075Y-20672371D02*
X55437218Y-20672371D01*
X55551503Y-20272371D02*
X55780075Y-20272371D01*
X55637218Y-20072371D02*
X55637218Y-20586657D01*
X55637218Y-20586657D02*
X55665789Y-20643800D01*
X55665789Y-20643800D02*
X55722932Y-20672371D01*
X55722932Y-20672371D02*
X55780075Y-20672371D01*
X56208646Y-20643800D02*
X56151503Y-20672371D01*
X56151503Y-20672371D02*
X56037218Y-20672371D01*
X56037218Y-20672371D02*
X55980075Y-20643800D01*
X55980075Y-20643800D02*
X55951503Y-20586657D01*
X55951503Y-20586657D02*
X55951503Y-20358085D01*
X55951503Y-20358085D02*
X55980075Y-20300942D01*
X55980075Y-20300942D02*
X56037218Y-20272371D01*
X56037218Y-20272371D02*
X56151503Y-20272371D01*
X56151503Y-20272371D02*
X56208646Y-20300942D01*
X56208646Y-20300942D02*
X56237218Y-20358085D01*
X56237218Y-20358085D02*
X56237218Y-20415228D01*
X56237218Y-20415228D02*
X55951503Y-20472371D01*
X56494361Y-20672371D02*
X56494361Y-20272371D01*
X56494361Y-20386657D02*
X56522932Y-20329514D01*
X56522932Y-20329514D02*
X56551504Y-20300942D01*
X56551504Y-20300942D02*
X56608646Y-20272371D01*
X56608646Y-20272371D02*
X56665789Y-20272371D01*
D11*
X64057142Y-46925760D02*
X64133333Y-46963855D01*
X64133333Y-46963855D02*
X64285714Y-46963855D01*
X64285714Y-46963855D02*
X64361904Y-46925760D01*
X64361904Y-46925760D02*
X64400000Y-46849569D01*
X64400000Y-46849569D02*
X64400000Y-46811474D01*
X64400000Y-46811474D02*
X64361904Y-46735283D01*
X64361904Y-46735283D02*
X64285714Y-46697188D01*
X64285714Y-46697188D02*
X64171428Y-46697188D01*
X64171428Y-46697188D02*
X64095238Y-46659093D01*
X64095238Y-46659093D02*
X64057142Y-46582902D01*
X64057142Y-46582902D02*
X64057142Y-46544807D01*
X64057142Y-46544807D02*
X64095238Y-46468617D01*
X64095238Y-46468617D02*
X64171428Y-46430521D01*
X64171428Y-46430521D02*
X64285714Y-46430521D01*
X64285714Y-46430521D02*
X64361904Y-46468617D01*
X64742857Y-46963855D02*
X64742857Y-46163855D01*
X65085714Y-46963855D02*
X65085714Y-46544807D01*
X65085714Y-46544807D02*
X65047619Y-46468617D01*
X65047619Y-46468617D02*
X64971428Y-46430521D01*
X64971428Y-46430521D02*
X64857142Y-46430521D01*
X64857142Y-46430521D02*
X64780952Y-46468617D01*
X64780952Y-46468617D02*
X64742857Y-46506712D01*
X65809524Y-46430521D02*
X65809524Y-46963855D01*
X65466667Y-46430521D02*
X65466667Y-46849569D01*
X65466667Y-46849569D02*
X65504762Y-46925760D01*
X65504762Y-46925760D02*
X65580952Y-46963855D01*
X65580952Y-46963855D02*
X65695238Y-46963855D01*
X65695238Y-46963855D02*
X65771429Y-46925760D01*
X65771429Y-46925760D02*
X65809524Y-46887664D01*
X66076191Y-46430521D02*
X66380953Y-46430521D01*
X66190477Y-46163855D02*
X66190477Y-46849569D01*
X66190477Y-46849569D02*
X66228572Y-46925760D01*
X66228572Y-46925760D02*
X66304762Y-46963855D01*
X66304762Y-46963855D02*
X66380953Y-46963855D01*
X66533334Y-46430521D02*
X66838096Y-46430521D01*
X66647620Y-46163855D02*
X66647620Y-46849569D01*
X66647620Y-46849569D02*
X66685715Y-46925760D01*
X66685715Y-46925760D02*
X66761905Y-46963855D01*
X66761905Y-46963855D02*
X66838096Y-46963855D01*
X67409525Y-46925760D02*
X67333334Y-46963855D01*
X67333334Y-46963855D02*
X67180953Y-46963855D01*
X67180953Y-46963855D02*
X67104763Y-46925760D01*
X67104763Y-46925760D02*
X67066667Y-46849569D01*
X67066667Y-46849569D02*
X67066667Y-46544807D01*
X67066667Y-46544807D02*
X67104763Y-46468617D01*
X67104763Y-46468617D02*
X67180953Y-46430521D01*
X67180953Y-46430521D02*
X67333334Y-46430521D01*
X67333334Y-46430521D02*
X67409525Y-46468617D01*
X67409525Y-46468617D02*
X67447620Y-46544807D01*
X67447620Y-46544807D02*
X67447620Y-46620998D01*
X67447620Y-46620998D02*
X67066667Y-46697188D01*
X67790477Y-46963855D02*
X67790477Y-46430521D01*
X67790477Y-46582902D02*
X67828572Y-46506712D01*
X67828572Y-46506712D02*
X67866667Y-46468617D01*
X67866667Y-46468617D02*
X67942858Y-46430521D01*
X67942858Y-46430521D02*
X68019048Y-46430521D01*
X55457142Y-46430521D02*
X55761904Y-46430521D01*
X55571428Y-46963855D02*
X55571428Y-46278140D01*
X55571428Y-46278140D02*
X55609523Y-46201950D01*
X55609523Y-46201950D02*
X55685713Y-46163855D01*
X55685713Y-46163855D02*
X55761904Y-46163855D01*
X56142856Y-46963855D02*
X56066666Y-46925760D01*
X56066666Y-46925760D02*
X56028571Y-46887664D01*
X56028571Y-46887664D02*
X55990475Y-46811474D01*
X55990475Y-46811474D02*
X55990475Y-46582902D01*
X55990475Y-46582902D02*
X56028571Y-46506712D01*
X56028571Y-46506712D02*
X56066666Y-46468617D01*
X56066666Y-46468617D02*
X56142856Y-46430521D01*
X56142856Y-46430521D02*
X56257142Y-46430521D01*
X56257142Y-46430521D02*
X56333333Y-46468617D01*
X56333333Y-46468617D02*
X56371428Y-46506712D01*
X56371428Y-46506712D02*
X56409523Y-46582902D01*
X56409523Y-46582902D02*
X56409523Y-46811474D01*
X56409523Y-46811474D02*
X56371428Y-46887664D01*
X56371428Y-46887664D02*
X56333333Y-46925760D01*
X56333333Y-46925760D02*
X56257142Y-46963855D01*
X56257142Y-46963855D02*
X56142856Y-46963855D01*
X57095238Y-46925760D02*
X57019047Y-46963855D01*
X57019047Y-46963855D02*
X56866666Y-46963855D01*
X56866666Y-46963855D02*
X56790476Y-46925760D01*
X56790476Y-46925760D02*
X56752381Y-46887664D01*
X56752381Y-46887664D02*
X56714285Y-46811474D01*
X56714285Y-46811474D02*
X56714285Y-46582902D01*
X56714285Y-46582902D02*
X56752381Y-46506712D01*
X56752381Y-46506712D02*
X56790476Y-46468617D01*
X56790476Y-46468617D02*
X56866666Y-46430521D01*
X56866666Y-46430521D02*
X57019047Y-46430521D01*
X57019047Y-46430521D02*
X57095238Y-46468617D01*
X57780952Y-46430521D02*
X57780952Y-46963855D01*
X57438095Y-46430521D02*
X57438095Y-46849569D01*
X57438095Y-46849569D02*
X57476190Y-46925760D01*
X57476190Y-46925760D02*
X57552380Y-46963855D01*
X57552380Y-46963855D02*
X57666666Y-46963855D01*
X57666666Y-46963855D02*
X57742857Y-46925760D01*
X57742857Y-46925760D02*
X57780952Y-46887664D01*
X58123809Y-46925760D02*
X58200000Y-46963855D01*
X58200000Y-46963855D02*
X58352381Y-46963855D01*
X58352381Y-46963855D02*
X58428571Y-46925760D01*
X58428571Y-46925760D02*
X58466667Y-46849569D01*
X58466667Y-46849569D02*
X58466667Y-46811474D01*
X58466667Y-46811474D02*
X58428571Y-46735283D01*
X58428571Y-46735283D02*
X58352381Y-46697188D01*
X58352381Y-46697188D02*
X58238095Y-46697188D01*
X58238095Y-46697188D02*
X58161905Y-46659093D01*
X58161905Y-46659093D02*
X58123809Y-46582902D01*
X58123809Y-46582902D02*
X58123809Y-46544807D01*
X58123809Y-46544807D02*
X58161905Y-46468617D01*
X58161905Y-46468617D02*
X58238095Y-46430521D01*
X58238095Y-46430521D02*
X58352381Y-46430521D01*
X58352381Y-46430521D02*
X58428571Y-46468617D01*
D12*
X34366666Y-37504819D02*
X34366666Y-38219104D01*
X34366666Y-38219104D02*
X34319047Y-38361961D01*
X34319047Y-38361961D02*
X34223809Y-38457200D01*
X34223809Y-38457200D02*
X34080952Y-38504819D01*
X34080952Y-38504819D02*
X33985714Y-38504819D01*
X35366666Y-38504819D02*
X34795238Y-38504819D01*
X35080952Y-38504819D02*
X35080952Y-37504819D01*
X35080952Y-37504819D02*
X34985714Y-37647676D01*
X34985714Y-37647676D02*
X34890476Y-37742914D01*
X34890476Y-37742914D02*
X34795238Y-37790533D01*
D13*
X46522931Y-21972371D02*
X46180074Y-21972371D01*
X46351503Y-21972371D02*
X46351503Y-21372371D01*
X46351503Y-21372371D02*
X46294360Y-21458085D01*
X46294360Y-21458085D02*
X46237217Y-21515228D01*
X46237217Y-21515228D02*
X46180074Y-21543800D01*
X46780075Y-21743800D02*
X47237218Y-21743800D01*
X47494360Y-21429514D02*
X47522932Y-21400942D01*
X47522932Y-21400942D02*
X47580075Y-21372371D01*
X47580075Y-21372371D02*
X47722932Y-21372371D01*
X47722932Y-21372371D02*
X47780075Y-21400942D01*
X47780075Y-21400942D02*
X47808646Y-21429514D01*
X47808646Y-21429514D02*
X47837217Y-21486657D01*
X47837217Y-21486657D02*
X47837217Y-21543800D01*
X47837217Y-21543800D02*
X47808646Y-21629514D01*
X47808646Y-21629514D02*
X47465789Y-21972371D01*
X47465789Y-21972371D02*
X47837217Y-21972371D01*
X48551504Y-21972371D02*
X48551504Y-21372371D01*
X48551504Y-21600942D02*
X48608647Y-21572371D01*
X48608647Y-21572371D02*
X48722932Y-21572371D01*
X48722932Y-21572371D02*
X48780075Y-21600942D01*
X48780075Y-21600942D02*
X48808647Y-21629514D01*
X48808647Y-21629514D02*
X48837218Y-21686657D01*
X48837218Y-21686657D02*
X48837218Y-21858085D01*
X48837218Y-21858085D02*
X48808647Y-21915228D01*
X48808647Y-21915228D02*
X48780075Y-21943800D01*
X48780075Y-21943800D02*
X48722932Y-21972371D01*
X48722932Y-21972371D02*
X48608647Y-21972371D01*
X48608647Y-21972371D02*
X48551504Y-21943800D01*
X49180075Y-21972371D02*
X49122932Y-21943800D01*
X49122932Y-21943800D02*
X49094361Y-21915228D01*
X49094361Y-21915228D02*
X49065789Y-21858085D01*
X49065789Y-21858085D02*
X49065789Y-21686657D01*
X49065789Y-21686657D02*
X49094361Y-21629514D01*
X49094361Y-21629514D02*
X49122932Y-21600942D01*
X49122932Y-21600942D02*
X49180075Y-21572371D01*
X49180075Y-21572371D02*
X49265789Y-21572371D01*
X49265789Y-21572371D02*
X49322932Y-21600942D01*
X49322932Y-21600942D02*
X49351504Y-21629514D01*
X49351504Y-21629514D02*
X49380075Y-21686657D01*
X49380075Y-21686657D02*
X49380075Y-21858085D01*
X49380075Y-21858085D02*
X49351504Y-21915228D01*
X49351504Y-21915228D02*
X49322932Y-21943800D01*
X49322932Y-21943800D02*
X49265789Y-21972371D01*
X49265789Y-21972371D02*
X49180075Y-21972371D01*
X49551503Y-21572371D02*
X49780075Y-21572371D01*
X49637218Y-21372371D02*
X49637218Y-21886657D01*
X49637218Y-21886657D02*
X49665789Y-21943800D01*
X49665789Y-21943800D02*
X49722932Y-21972371D01*
X49722932Y-21972371D02*
X49780075Y-21972371D01*
X49980075Y-21972371D02*
X49980075Y-21372371D01*
X50237218Y-21972371D02*
X50237218Y-21658085D01*
X50237218Y-21658085D02*
X50208646Y-21600942D01*
X50208646Y-21600942D02*
X50151503Y-21572371D01*
X50151503Y-21572371D02*
X50065789Y-21572371D01*
X50065789Y-21572371D02*
X50008646Y-21600942D01*
X50008646Y-21600942D02*
X49980075Y-21629514D01*
X51237218Y-21943800D02*
X51180075Y-21972371D01*
X51180075Y-21972371D02*
X51065789Y-21972371D01*
X51065789Y-21972371D02*
X51008646Y-21943800D01*
X51008646Y-21943800D02*
X50980075Y-21915228D01*
X50980075Y-21915228D02*
X50951503Y-21858085D01*
X50951503Y-21858085D02*
X50951503Y-21686657D01*
X50951503Y-21686657D02*
X50980075Y-21629514D01*
X50980075Y-21629514D02*
X51008646Y-21600942D01*
X51008646Y-21600942D02*
X51065789Y-21572371D01*
X51065789Y-21572371D02*
X51180075Y-21572371D01*
X51180075Y-21572371D02*
X51237218Y-21600942D01*
X51751504Y-21972371D02*
X51751504Y-21658085D01*
X51751504Y-21658085D02*
X51722932Y-21600942D01*
X51722932Y-21600942D02*
X51665789Y-21572371D01*
X51665789Y-21572371D02*
X51551504Y-21572371D01*
X51551504Y-21572371D02*
X51494361Y-21600942D01*
X51751504Y-21943800D02*
X51694361Y-21972371D01*
X51694361Y-21972371D02*
X51551504Y-21972371D01*
X51551504Y-21972371D02*
X51494361Y-21943800D01*
X51494361Y-21943800D02*
X51465789Y-21886657D01*
X51465789Y-21886657D02*
X51465789Y-21829514D01*
X51465789Y-21829514D02*
X51494361Y-21772371D01*
X51494361Y-21772371D02*
X51551504Y-21743800D01*
X51551504Y-21743800D02*
X51694361Y-21743800D01*
X51694361Y-21743800D02*
X51751504Y-21715228D01*
X52037218Y-21972371D02*
X52037218Y-21572371D01*
X52037218Y-21629514D02*
X52065789Y-21600942D01*
X52065789Y-21600942D02*
X52122932Y-21572371D01*
X52122932Y-21572371D02*
X52208646Y-21572371D01*
X52208646Y-21572371D02*
X52265789Y-21600942D01*
X52265789Y-21600942D02*
X52294361Y-21658085D01*
X52294361Y-21658085D02*
X52294361Y-21972371D01*
X52294361Y-21658085D02*
X52322932Y-21600942D01*
X52322932Y-21600942D02*
X52380075Y-21572371D01*
X52380075Y-21572371D02*
X52465789Y-21572371D01*
X52465789Y-21572371D02*
X52522932Y-21600942D01*
X52522932Y-21600942D02*
X52551503Y-21658085D01*
X52551503Y-21658085D02*
X52551503Y-21972371D01*
X53065789Y-21943800D02*
X53008646Y-21972371D01*
X53008646Y-21972371D02*
X52894361Y-21972371D01*
X52894361Y-21972371D02*
X52837218Y-21943800D01*
X52837218Y-21943800D02*
X52808646Y-21886657D01*
X52808646Y-21886657D02*
X52808646Y-21658085D01*
X52808646Y-21658085D02*
X52837218Y-21600942D01*
X52837218Y-21600942D02*
X52894361Y-21572371D01*
X52894361Y-21572371D02*
X53008646Y-21572371D01*
X53008646Y-21572371D02*
X53065789Y-21600942D01*
X53065789Y-21600942D02*
X53094361Y-21658085D01*
X53094361Y-21658085D02*
X53094361Y-21715228D01*
X53094361Y-21715228D02*
X52808646Y-21772371D01*
X53351504Y-21972371D02*
X53351504Y-21572371D01*
X53351504Y-21686657D02*
X53380075Y-21629514D01*
X53380075Y-21629514D02*
X53408647Y-21600942D01*
X53408647Y-21600942D02*
X53465789Y-21572371D01*
X53465789Y-21572371D02*
X53522932Y-21572371D01*
X53980076Y-21972371D02*
X53980076Y-21658085D01*
X53980076Y-21658085D02*
X53951504Y-21600942D01*
X53951504Y-21600942D02*
X53894361Y-21572371D01*
X53894361Y-21572371D02*
X53780076Y-21572371D01*
X53780076Y-21572371D02*
X53722933Y-21600942D01*
X53980076Y-21943800D02*
X53922933Y-21972371D01*
X53922933Y-21972371D02*
X53780076Y-21972371D01*
X53780076Y-21972371D02*
X53722933Y-21943800D01*
X53722933Y-21943800D02*
X53694361Y-21886657D01*
X53694361Y-21886657D02*
X53694361Y-21829514D01*
X53694361Y-21829514D02*
X53722933Y-21772371D01*
X53722933Y-21772371D02*
X53780076Y-21743800D01*
X53780076Y-21743800D02*
X53922933Y-21743800D01*
X53922933Y-21743800D02*
X53980076Y-21715228D01*
X54237218Y-21943800D02*
X54294361Y-21972371D01*
X54294361Y-21972371D02*
X54408647Y-21972371D01*
X54408647Y-21972371D02*
X54465790Y-21943800D01*
X54465790Y-21943800D02*
X54494361Y-21886657D01*
X54494361Y-21886657D02*
X54494361Y-21858085D01*
X54494361Y-21858085D02*
X54465790Y-21800942D01*
X54465790Y-21800942D02*
X54408647Y-21772371D01*
X54408647Y-21772371D02*
X54322933Y-21772371D01*
X54322933Y-21772371D02*
X54265790Y-21743800D01*
X54265790Y-21743800D02*
X54237218Y-21686657D01*
X54237218Y-21686657D02*
X54237218Y-21658085D01*
X54237218Y-21658085D02*
X54265790Y-21600942D01*
X54265790Y-21600942D02*
X54322933Y-21572371D01*
X54322933Y-21572371D02*
X54408647Y-21572371D01*
X54408647Y-21572371D02*
X54465790Y-21600942D01*
D12*
X74114285Y-21138152D02*
X74114285Y-21804819D01*
X73876190Y-20757200D02*
X73638095Y-21471485D01*
X73638095Y-21471485D02*
X74257142Y-21471485D01*
X74828571Y-20804819D02*
X74923809Y-20804819D01*
X74923809Y-20804819D02*
X75019047Y-20852438D01*
X75019047Y-20852438D02*
X75066666Y-20900057D01*
X75066666Y-20900057D02*
X75114285Y-20995295D01*
X75114285Y-20995295D02*
X75161904Y-21185771D01*
X75161904Y-21185771D02*
X75161904Y-21423866D01*
X75161904Y-21423866D02*
X75114285Y-21614342D01*
X75114285Y-21614342D02*
X75066666Y-21709580D01*
X75066666Y-21709580D02*
X75019047Y-21757200D01*
X75019047Y-21757200D02*
X74923809Y-21804819D01*
X74923809Y-21804819D02*
X74828571Y-21804819D01*
X74828571Y-21804819D02*
X74733333Y-21757200D01*
X74733333Y-21757200D02*
X74685714Y-21709580D01*
X74685714Y-21709580D02*
X74638095Y-21614342D01*
X74638095Y-21614342D02*
X74590476Y-21423866D01*
X74590476Y-21423866D02*
X74590476Y-21185771D01*
X74590476Y-21185771D02*
X74638095Y-20995295D01*
X74638095Y-20995295D02*
X74685714Y-20900057D01*
X74685714Y-20900057D02*
X74733333Y-20852438D01*
X74733333Y-20852438D02*
X74828571Y-20804819D01*
X34366666Y-25804819D02*
X34366666Y-26519104D01*
X34366666Y-26519104D02*
X34319047Y-26661961D01*
X34319047Y-26661961D02*
X34223809Y-26757200D01*
X34223809Y-26757200D02*
X34080952Y-26804819D01*
X34080952Y-26804819D02*
X33985714Y-26804819D01*
X34795238Y-25900057D02*
X34842857Y-25852438D01*
X34842857Y-25852438D02*
X34938095Y-25804819D01*
X34938095Y-25804819D02*
X35176190Y-25804819D01*
X35176190Y-25804819D02*
X35271428Y-25852438D01*
X35271428Y-25852438D02*
X35319047Y-25900057D01*
X35319047Y-25900057D02*
X35366666Y-25995295D01*
X35366666Y-25995295D02*
X35366666Y-26090533D01*
X35366666Y-26090533D02*
X35319047Y-26233390D01*
X35319047Y-26233390D02*
X34747619Y-26804819D01*
X34747619Y-26804819D02*
X35366666Y-26804819D01*
X73866666Y-32204819D02*
X73866666Y-32919104D01*
X73866666Y-32919104D02*
X73819047Y-33061961D01*
X73819047Y-33061961D02*
X73723809Y-33157200D01*
X73723809Y-33157200D02*
X73580952Y-33204819D01*
X73580952Y-33204819D02*
X73485714Y-33204819D01*
X74342857Y-33204819D02*
X74342857Y-32204819D01*
X74342857Y-32204819D02*
X74723809Y-32204819D01*
X74723809Y-32204819D02*
X74819047Y-32252438D01*
X74819047Y-32252438D02*
X74866666Y-32300057D01*
X74866666Y-32300057D02*
X74914285Y-32395295D01*
X74914285Y-32395295D02*
X74914285Y-32538152D01*
X74914285Y-32538152D02*
X74866666Y-32633390D01*
X74866666Y-32633390D02*
X74819047Y-32681009D01*
X74819047Y-32681009D02*
X74723809Y-32728628D01*
X74723809Y-32728628D02*
X74342857Y-32728628D01*
X75866666Y-33204819D02*
X75295238Y-33204819D01*
X75580952Y-33204819D02*
X75580952Y-32204819D01*
X75580952Y-32204819D02*
X75485714Y-32347676D01*
X75485714Y-32347676D02*
X75390476Y-32442914D01*
X75390476Y-32442914D02*
X75295238Y-32490533D01*
X46248095Y-36174819D02*
X46248095Y-36984342D01*
X46248095Y-36984342D02*
X46295714Y-37079580D01*
X46295714Y-37079580D02*
X46343333Y-37127200D01*
X46343333Y-37127200D02*
X46438571Y-37174819D01*
X46438571Y-37174819D02*
X46629047Y-37174819D01*
X46629047Y-37174819D02*
X46724285Y-37127200D01*
X46724285Y-37127200D02*
X46771904Y-37079580D01*
X46771904Y-37079580D02*
X46819523Y-36984342D01*
X46819523Y-36984342D02*
X46819523Y-36174819D01*
X47819523Y-37174819D02*
X47248095Y-37174819D01*
X47533809Y-37174819D02*
X47533809Y-36174819D01*
X47533809Y-36174819D02*
X47438571Y-36317676D01*
X47438571Y-36317676D02*
X47343333Y-36412914D01*
X47343333Y-36412914D02*
X47248095Y-36460533D01*
X64248095Y-36174819D02*
X64248095Y-36984342D01*
X64248095Y-36984342D02*
X64295714Y-37079580D01*
X64295714Y-37079580D02*
X64343333Y-37127200D01*
X64343333Y-37127200D02*
X64438571Y-37174819D01*
X64438571Y-37174819D02*
X64629047Y-37174819D01*
X64629047Y-37174819D02*
X64724285Y-37127200D01*
X64724285Y-37127200D02*
X64771904Y-37079580D01*
X64771904Y-37079580D02*
X64819523Y-36984342D01*
X64819523Y-36984342D02*
X64819523Y-36174819D01*
X65248095Y-36270057D02*
X65295714Y-36222438D01*
X65295714Y-36222438D02*
X65390952Y-36174819D01*
X65390952Y-36174819D02*
X65629047Y-36174819D01*
X65629047Y-36174819D02*
X65724285Y-36222438D01*
X65724285Y-36222438D02*
X65771904Y-36270057D01*
X65771904Y-36270057D02*
X65819523Y-36365295D01*
X65819523Y-36365295D02*
X65819523Y-36460533D01*
X65819523Y-36460533D02*
X65771904Y-36603390D01*
X65771904Y-36603390D02*
X65200476Y-37174819D01*
X65200476Y-37174819D02*
X65819523Y-37174819D01*
X57103333Y-37134819D02*
X56770000Y-36658628D01*
X56531905Y-37134819D02*
X56531905Y-36134819D01*
X56531905Y-36134819D02*
X56912857Y-36134819D01*
X56912857Y-36134819D02*
X57008095Y-36182438D01*
X57008095Y-36182438D02*
X57055714Y-36230057D01*
X57055714Y-36230057D02*
X57103333Y-36325295D01*
X57103333Y-36325295D02*
X57103333Y-36468152D01*
X57103333Y-36468152D02*
X57055714Y-36563390D01*
X57055714Y-36563390D02*
X57008095Y-36611009D01*
X57008095Y-36611009D02*
X56912857Y-36658628D01*
X56912857Y-36658628D02*
X56531905Y-36658628D01*
X57484286Y-36230057D02*
X57531905Y-36182438D01*
X57531905Y-36182438D02*
X57627143Y-36134819D01*
X57627143Y-36134819D02*
X57865238Y-36134819D01*
X57865238Y-36134819D02*
X57960476Y-36182438D01*
X57960476Y-36182438D02*
X58008095Y-36230057D01*
X58008095Y-36230057D02*
X58055714Y-36325295D01*
X58055714Y-36325295D02*
X58055714Y-36420533D01*
X58055714Y-36420533D02*
X58008095Y-36563390D01*
X58008095Y-36563390D02*
X57436667Y-37134819D01*
X57436667Y-37134819D02*
X58055714Y-37134819D01*
X39103333Y-26134819D02*
X38770000Y-25658628D01*
X38531905Y-26134819D02*
X38531905Y-25134819D01*
X38531905Y-25134819D02*
X38912857Y-25134819D01*
X38912857Y-25134819D02*
X39008095Y-25182438D01*
X39008095Y-25182438D02*
X39055714Y-25230057D01*
X39055714Y-25230057D02*
X39103333Y-25325295D01*
X39103333Y-25325295D02*
X39103333Y-25468152D01*
X39103333Y-25468152D02*
X39055714Y-25563390D01*
X39055714Y-25563390D02*
X39008095Y-25611009D01*
X39008095Y-25611009D02*
X38912857Y-25658628D01*
X38912857Y-25658628D02*
X38531905Y-25658628D01*
X39436667Y-25134819D02*
X40055714Y-25134819D01*
X40055714Y-25134819D02*
X39722381Y-25515771D01*
X39722381Y-25515771D02*
X39865238Y-25515771D01*
X39865238Y-25515771D02*
X39960476Y-25563390D01*
X39960476Y-25563390D02*
X40008095Y-25611009D01*
X40008095Y-25611009D02*
X40055714Y-25706247D01*
X40055714Y-25706247D02*
X40055714Y-25944342D01*
X40055714Y-25944342D02*
X40008095Y-26039580D01*
X40008095Y-26039580D02*
X39960476Y-26087200D01*
X39960476Y-26087200D02*
X39865238Y-26134819D01*
X39865238Y-26134819D02*
X39579524Y-26134819D01*
X39579524Y-26134819D02*
X39484286Y-26087200D01*
X39484286Y-26087200D02*
X39436667Y-26039580D01*
X39103333Y-37134819D02*
X38770000Y-36658628D01*
X38531905Y-37134819D02*
X38531905Y-36134819D01*
X38531905Y-36134819D02*
X38912857Y-36134819D01*
X38912857Y-36134819D02*
X39008095Y-36182438D01*
X39008095Y-36182438D02*
X39055714Y-36230057D01*
X39055714Y-36230057D02*
X39103333Y-36325295D01*
X39103333Y-36325295D02*
X39103333Y-36468152D01*
X39103333Y-36468152D02*
X39055714Y-36563390D01*
X39055714Y-36563390D02*
X39008095Y-36611009D01*
X39008095Y-36611009D02*
X38912857Y-36658628D01*
X38912857Y-36658628D02*
X38531905Y-36658628D01*
X40055714Y-37134819D02*
X39484286Y-37134819D01*
X39770000Y-37134819D02*
X39770000Y-36134819D01*
X39770000Y-36134819D02*
X39674762Y-36277676D01*
X39674762Y-36277676D02*
X39579524Y-36372914D01*
X39579524Y-36372914D02*
X39484286Y-36420533D01*
X46248095Y-25174819D02*
X46248095Y-25984342D01*
X46248095Y-25984342D02*
X46295714Y-26079580D01*
X46295714Y-26079580D02*
X46343333Y-26127200D01*
X46343333Y-26127200D02*
X46438571Y-26174819D01*
X46438571Y-26174819D02*
X46629047Y-26174819D01*
X46629047Y-26174819D02*
X46724285Y-26127200D01*
X46724285Y-26127200D02*
X46771904Y-26079580D01*
X46771904Y-26079580D02*
X46819523Y-25984342D01*
X46819523Y-25984342D02*
X46819523Y-25174819D01*
X47200476Y-25174819D02*
X47819523Y-25174819D01*
X47819523Y-25174819D02*
X47486190Y-25555771D01*
X47486190Y-25555771D02*
X47629047Y-25555771D01*
X47629047Y-25555771D02*
X47724285Y-25603390D01*
X47724285Y-25603390D02*
X47771904Y-25651009D01*
X47771904Y-25651009D02*
X47819523Y-25746247D01*
X47819523Y-25746247D02*
X47819523Y-25984342D01*
X47819523Y-25984342D02*
X47771904Y-26079580D01*
X47771904Y-26079580D02*
X47724285Y-26127200D01*
X47724285Y-26127200D02*
X47629047Y-26174819D01*
X47629047Y-26174819D02*
X47343333Y-26174819D01*
X47343333Y-26174819D02*
X47248095Y-26127200D01*
X47248095Y-26127200D02*
X47200476Y-26079580D01*
X73866666Y-37204819D02*
X73866666Y-37919104D01*
X73866666Y-37919104D02*
X73819047Y-38061961D01*
X73819047Y-38061961D02*
X73723809Y-38157200D01*
X73723809Y-38157200D02*
X73580952Y-38204819D01*
X73580952Y-38204819D02*
X73485714Y-38204819D01*
X74342857Y-38204819D02*
X74342857Y-37204819D01*
X74342857Y-37204819D02*
X74723809Y-37204819D01*
X74723809Y-37204819D02*
X74819047Y-37252438D01*
X74819047Y-37252438D02*
X74866666Y-37300057D01*
X74866666Y-37300057D02*
X74914285Y-37395295D01*
X74914285Y-37395295D02*
X74914285Y-37538152D01*
X74914285Y-37538152D02*
X74866666Y-37633390D01*
X74866666Y-37633390D02*
X74819047Y-37681009D01*
X74819047Y-37681009D02*
X74723809Y-37728628D01*
X74723809Y-37728628D02*
X74342857Y-37728628D01*
X75295238Y-37300057D02*
X75342857Y-37252438D01*
X75342857Y-37252438D02*
X75438095Y-37204819D01*
X75438095Y-37204819D02*
X75676190Y-37204819D01*
X75676190Y-37204819D02*
X75771428Y-37252438D01*
X75771428Y-37252438D02*
X75819047Y-37300057D01*
X75819047Y-37300057D02*
X75866666Y-37395295D01*
X75866666Y-37395295D02*
X75866666Y-37490533D01*
X75866666Y-37490533D02*
X75819047Y-37633390D01*
X75819047Y-37633390D02*
X75247619Y-38204819D01*
X75247619Y-38204819D02*
X75866666Y-38204819D01*
X57103333Y-26134819D02*
X56770000Y-25658628D01*
X56531905Y-26134819D02*
X56531905Y-25134819D01*
X56531905Y-25134819D02*
X56912857Y-25134819D01*
X56912857Y-25134819D02*
X57008095Y-25182438D01*
X57008095Y-25182438D02*
X57055714Y-25230057D01*
X57055714Y-25230057D02*
X57103333Y-25325295D01*
X57103333Y-25325295D02*
X57103333Y-25468152D01*
X57103333Y-25468152D02*
X57055714Y-25563390D01*
X57055714Y-25563390D02*
X57008095Y-25611009D01*
X57008095Y-25611009D02*
X56912857Y-25658628D01*
X56912857Y-25658628D02*
X56531905Y-25658628D01*
X57960476Y-25468152D02*
X57960476Y-26134819D01*
X57722381Y-25087200D02*
X57484286Y-25801485D01*
X57484286Y-25801485D02*
X58103333Y-25801485D01*
X64248095Y-25174819D02*
X64248095Y-25984342D01*
X64248095Y-25984342D02*
X64295714Y-26079580D01*
X64295714Y-26079580D02*
X64343333Y-26127200D01*
X64343333Y-26127200D02*
X64438571Y-26174819D01*
X64438571Y-26174819D02*
X64629047Y-26174819D01*
X64629047Y-26174819D02*
X64724285Y-26127200D01*
X64724285Y-26127200D02*
X64771904Y-26079580D01*
X64771904Y-26079580D02*
X64819523Y-25984342D01*
X64819523Y-25984342D02*
X64819523Y-25174819D01*
X65724285Y-25508152D02*
X65724285Y-26174819D01*
X65486190Y-25127200D02*
X65248095Y-25841485D01*
X65248095Y-25841485D02*
X65867142Y-25841485D01*
D11*
%TO.C,D3*%
X55710000Y-59255000D02*
X55710000Y-62345000D01*
X55710000Y-59255170D02*
G75*
G02*
X61260000Y-60800000I2560000J-1544830D01*
G01*
X61260000Y-60800000D02*
G75*
G02*
X55710000Y-62344830I-2990000J0D01*
G01*
X60770000Y-60800000D02*
G75*
G02*
X55770000Y-60800000I-2500000J0D01*
G01*
X55770000Y-60800000D02*
G75*
G02*
X60770000Y-60800000I2500000J0D01*
G01*
%TO.C,R7*%
X58370000Y-65900000D02*
X58440000Y-65900000D01*
X58370000Y-65900000D02*
G75*
G02*
X55630000Y-65900000I-1370000J0D01*
G01*
X55630000Y-65900000D02*
G75*
G02*
X58370000Y-65900000I1370000J0D01*
G01*
%TO.C,JP1*%
X72650000Y-33550000D02*
X76750000Y-33550000D01*
X72650000Y-35550000D02*
X72650000Y-33550000D01*
X73100000Y-36050000D02*
X73700000Y-36050000D01*
X73400000Y-35750000D02*
X73100000Y-36050000D01*
X73400000Y-35750000D02*
X73700000Y-36050000D01*
X76750000Y-33550000D02*
X76750000Y-35550000D01*
X76750000Y-35550000D02*
X72650000Y-35550000D01*
%TO.C,U1*%
X44360000Y-37720000D02*
X44360000Y-45460000D01*
X44360000Y-45460000D02*
X49660000Y-45460000D01*
X46010000Y-37720000D02*
X44360000Y-37720000D01*
X49660000Y-37720000D02*
X48010000Y-37720000D01*
X49660000Y-45460000D02*
X49660000Y-37720000D01*
X48010000Y-37720000D02*
G75*
G02*
X46010000Y-37720000I-1000000J0D01*
G01*
%TO.C,U2*%
X62360000Y-37720000D02*
X62360000Y-45460000D01*
X62360000Y-45460000D02*
X67660000Y-45460000D01*
X64010000Y-37720000D02*
X62360000Y-37720000D01*
X67660000Y-37720000D02*
X66010000Y-37720000D01*
X67660000Y-45460000D02*
X67660000Y-37720000D01*
X66010000Y-37720000D02*
G75*
G02*
X64010000Y-37720000I-1000000J0D01*
G01*
%TO.C,R2*%
X57370000Y-39050000D02*
X57440000Y-39050000D01*
X57370000Y-39050000D02*
G75*
G02*
X54630000Y-39050000I-1370000J0D01*
G01*
X54630000Y-39050000D02*
G75*
G02*
X57370000Y-39050000I1370000J0D01*
G01*
%TO.C,J1*%
X14630000Y-34030000D02*
X18630000Y-34030000D01*
X14630000Y-40270000D02*
X14630000Y-34030000D01*
X18630000Y-33730000D02*
X32870000Y-33730000D01*
X18630000Y-34030000D02*
X18630000Y-33730000D01*
X18630000Y-40270000D02*
X14630000Y-40270000D01*
X18630000Y-42170000D02*
X18630000Y-40270000D01*
X32870000Y-33730000D02*
X32870000Y-42170000D01*
X32870000Y-42170000D02*
X18630000Y-42170000D01*
%TO.C,D4*%
X64710000Y-59255000D02*
X64710000Y-62345000D01*
X64710000Y-59255170D02*
G75*
G02*
X70260000Y-60800000I2560000J-1544830D01*
G01*
X70260000Y-60800000D02*
G75*
G02*
X64710000Y-62344830I-2990000J0D01*
G01*
X69770000Y-60800000D02*
G75*
G02*
X64770000Y-60800000I-2500000J0D01*
G01*
X64770000Y-60800000D02*
G75*
G02*
X69770000Y-60800000I2500000J0D01*
G01*
%TO.C,R5*%
X58370000Y-55700000D02*
X58440000Y-55700000D01*
X58370000Y-55700000D02*
G75*
G02*
X55630000Y-55700000I-1370000J0D01*
G01*
X55630000Y-55700000D02*
G75*
G02*
X58370000Y-55700000I1370000J0D01*
G01*
%TO.C,R3*%
X39370000Y-28050000D02*
X39440000Y-28050000D01*
X39370000Y-28050000D02*
G75*
G02*
X36630000Y-28050000I-1370000J0D01*
G01*
X36630000Y-28050000D02*
G75*
G02*
X39370000Y-28050000I1370000J0D01*
G01*
%TO.C,R1*%
X39370000Y-39050000D02*
X39440000Y-39050000D01*
X39370000Y-39050000D02*
G75*
G02*
X36630000Y-39050000I-1370000J0D01*
G01*
X36630000Y-39050000D02*
G75*
G02*
X39370000Y-39050000I1370000J0D01*
G01*
%TO.C,D1*%
X55710000Y-49055000D02*
X55710000Y-52145000D01*
X55710000Y-49055170D02*
G75*
G02*
X61260000Y-50600000I2560000J-1544830D01*
G01*
X61260000Y-50600000D02*
G75*
G02*
X55710000Y-52144830I-2990000J0D01*
G01*
X60770000Y-50600000D02*
G75*
G02*
X55770000Y-50600000I-2500000J0D01*
G01*
X55770000Y-50600000D02*
G75*
G02*
X60770000Y-50600000I2500000J0D01*
G01*
%TO.C,U3*%
X44360000Y-26720000D02*
X44360000Y-34460000D01*
X44360000Y-34460000D02*
X49660000Y-34460000D01*
X46010000Y-26720000D02*
X44360000Y-26720000D01*
X49660000Y-26720000D02*
X48010000Y-26720000D01*
X49660000Y-34460000D02*
X49660000Y-26720000D01*
X48010000Y-26720000D02*
G75*
G02*
X46010000Y-26720000I-1000000J0D01*
G01*
%TO.C,J2*%
X14630000Y-22330000D02*
X18630000Y-22330000D01*
X14630000Y-28570000D02*
X14630000Y-22330000D01*
X18630000Y-22030000D02*
X32870000Y-22030000D01*
X18630000Y-22330000D02*
X18630000Y-22030000D01*
X18630000Y-28570000D02*
X14630000Y-28570000D01*
X18630000Y-30470000D02*
X18630000Y-28570000D01*
X32870000Y-22030000D02*
X32870000Y-30470000D01*
X32870000Y-30470000D02*
X18630000Y-30470000D01*
%TO.C,JP2*%
X72650000Y-38550000D02*
X76750000Y-38550000D01*
X72650000Y-40550000D02*
X72650000Y-38550000D01*
X73100000Y-41050000D02*
X73700000Y-41050000D01*
X73400000Y-40750000D02*
X73100000Y-41050000D01*
X73400000Y-40750000D02*
X73700000Y-41050000D01*
X76750000Y-38550000D02*
X76750000Y-40550000D01*
X76750000Y-40550000D02*
X72650000Y-40550000D01*
%TO.C,R4*%
X57370000Y-28050000D02*
X57440000Y-28050000D01*
X57370000Y-28050000D02*
G75*
G02*
X54630000Y-28050000I-1370000J0D01*
G01*
X54630000Y-28050000D02*
G75*
G02*
X57370000Y-28050000I1370000J0D01*
G01*
%TO.C,R6*%
X67370000Y-55700000D02*
X67440000Y-55700000D01*
X67370000Y-55700000D02*
G75*
G02*
X64630000Y-55700000I-1370000J0D01*
G01*
X64630000Y-55700000D02*
G75*
G02*
X67370000Y-55700000I1370000J0D01*
G01*
%TO.C,R8*%
X67370000Y-65900000D02*
X67440000Y-65900000D01*
X67370000Y-65900000D02*
G75*
G02*
X64630000Y-65900000I-1370000J0D01*
G01*
X64630000Y-65900000D02*
G75*
G02*
X67370000Y-65900000I1370000J0D01*
G01*
%TO.C,U4*%
X62360000Y-26720000D02*
X62360000Y-34460000D01*
X62360000Y-34460000D02*
X67660000Y-34460000D01*
X64010000Y-26720000D02*
X62360000Y-26720000D01*
X67660000Y-26720000D02*
X66010000Y-26720000D01*
X67660000Y-34460000D02*
X67660000Y-26720000D01*
X66010000Y-26720000D02*
G75*
G02*
X64010000Y-26720000I-1000000J0D01*
G01*
%TO.C,D2*%
X64710000Y-49055000D02*
X64710000Y-52145000D01*
X64710000Y-49055170D02*
G75*
G02*
X70260000Y-50600000I2560000J-1544830D01*
G01*
X70260000Y-50600000D02*
G75*
G02*
X64710000Y-52144830I-2990000J0D01*
G01*
X69770000Y-50600000D02*
G75*
G02*
X64770000Y-50600000I-2500000J0D01*
G01*
X64770000Y-50600000D02*
G75*
G02*
X69770000Y-50600000I2500000J0D01*
G01*
%TD*%
M02*
