M48
; DRILL file {KiCad 9.0.7} date 2026-09-21T20:37:49-0400
; FORMAT={-:-/ absolute / metric / decimal}
; #@! TF.CreationDate,2026-09-21T20:37:49-04:00
; #@! TF.GenerationSoftware,Kicad,Pcbnew,9.0.7
; #@! TF.FileFunction,MixedPlating,1,2
FMAT,2
METRIC
; #@! TA.AperFunction,Plated,PTH,ViaDrill
T1C0.400
; #@! TA.AperFunction,Plated,PTH,ComponentDrill
T2C0.800
; #@! TA.AperFunction,Plated,PTH,ComponentDrill
T3C0.900
; #@! TA.AperFunction,Plated,PTH,ComponentDrill
T4C1.000
; #@! TA.AperFunction,NonPlated,NPTH,ComponentDrill
T5C2.700
%
G90
G05
T1
X36.25Y-23.75
X36.25Y-27.5
X36.25Y-33.5
X36.25Y-38.5
X36.25Y-44.75
X36.25Y-47.25
X36.5Y-32.25
X38.0Y-23.75
X38.25Y-44.75
X38.25Y-47.25
X42.5Y-34.75
X44.0Y-34.75
X54.25Y-25.0
X54.25Y-27.5
X54.6Y-55.7
X54.6Y-65.9
X55.0Y-33.75
X59.5Y-33.75
X59.5Y-44.75
X62.25Y-36.0
X62.75Y-46.75
X62.75Y-53.0
X63.6Y-55.7
X63.6Y-65.9
X64.0Y-37.0
X64.0Y-45.5
X64.5Y-21.0
X64.5Y-23.75
X64.5Y-25.0
X65.25Y-46.75
X69.0Y-23.75
X69.19Y-21.01
X70.75Y-21.5
X71.0Y-34.55
X71.0Y-39.55
X72.46Y-21.01
X73.25Y-31.75
X74.25Y-26.75
X74.5Y-28.0
X74.7Y-32.15
X74.7Y-37.15
X76.0Y-36.95
X76.0Y-41.95
X76.25Y-34.25
X77.5Y-32.25
T2
X38.0Y-28.05
X38.0Y-39.05
X40.54Y-28.05
X40.54Y-39.05
X43.2Y-28.05
X43.2Y-30.59
X43.2Y-33.13
X43.2Y-39.05
X43.2Y-41.59
X43.2Y-44.13
X50.82Y-28.05
X50.82Y-30.59
X50.82Y-33.13
X50.82Y-39.05
X50.82Y-41.59
X50.82Y-44.13
X56.0Y-28.05
X56.0Y-39.05
X57.0Y-55.7
X57.0Y-65.9
X58.54Y-28.05
X58.54Y-39.05
X59.54Y-55.7
X59.54Y-65.9
X61.2Y-28.05
X61.2Y-30.59
X61.2Y-33.13
X61.2Y-39.05
X61.2Y-41.59
X61.2Y-44.13
X66.0Y-55.7
X66.0Y-65.9
X68.54Y-55.7
X68.54Y-65.9
X68.82Y-28.05
X68.82Y-30.59
X68.82Y-33.13
X68.82Y-39.05
X68.82Y-41.59
X68.82Y-44.13
T3
X57.0Y-50.6
X57.0Y-60.8
X59.54Y-50.6
X59.54Y-60.8
X66.0Y-50.6
X66.0Y-60.8
X68.54Y-50.6
X68.54Y-60.8
T4
X22.2Y-16.01
X22.2Y-18.55
X24.74Y-16.01
X24.74Y-18.55
X27.28Y-16.01
X27.28Y-18.55
X29.82Y-16.01
X29.82Y-18.55
X32.36Y-16.01
X32.36Y-18.55
X34.9Y-16.01
X34.9Y-18.55
X37.44Y-16.01
X37.44Y-18.55
X39.98Y-16.01
X39.98Y-18.55
X42.52Y-16.01
X42.52Y-18.55
X45.06Y-16.01
X45.06Y-18.55
X47.6Y-16.01
X47.6Y-18.55
X50.14Y-16.01
X50.14Y-18.55
X52.68Y-16.01
X52.68Y-18.55
X55.22Y-16.01
X55.22Y-18.55
X57.76Y-16.01
X57.76Y-18.55
X60.3Y-16.01
X60.3Y-18.55
X62.84Y-16.01
X62.84Y-18.55
X65.38Y-16.01
X65.38Y-18.55
X67.92Y-16.01
X67.92Y-18.55
X70.46Y-16.01
X70.46Y-18.55
T5
X17.33Y-17.28
X17.33Y-66.28
X75.33Y-17.28
X75.33Y-66.28
T4
X19.95Y-25.85G85X19.95Y-26.85
G05
X19.95Y-37.55G85X19.95Y-38.55
G05
X22.35Y-23.85G85X22.35Y-24.85
G05
X22.35Y-35.55G85X22.35Y-36.55
G05
X26.05Y-25.85G85X26.05Y-26.85
G05
X26.05Y-37.55G85X26.05Y-38.55
G05
X27.85Y-23.85G85X27.85Y-24.85
G05
X27.85Y-35.55G85X27.85Y-36.55
G05
X31.55Y-25.85G85X31.55Y-26.85
G05
X31.55Y-37.55G85X31.55Y-38.55
G05
M30
