%TF.GenerationSoftware,KiCad,Pcbnew,9.0.7*%
%TF.CreationDate,2026-09-21T20:37:49-04:00*%
%TF.ProjectId,gpio_trigger,6770696f-5f74-4726-9967-6765722e6b69,rev?*%
%TF.SameCoordinates,Original*%
%TF.FileFunction,Legend,Bot*%
%TF.FilePolarity,Positive*%
%FSLAX46Y46*%
G04 Gerber Fmt 4.6, Leading zero omitted, Abs format (unit mm)*
G04 Created by KiCad (PCBNEW 9.0.7) date 2026-09-21 20:37:49*
%MOMM*%
%LPD*%
G01*
G04 APERTURE LIST*
%ADD10C,0.150000*%
%ADD11C,0.100000*%
%ADD12C,0.120000*%
G04 APERTURE END LIST*
D10*
X21914285Y-21554819D02*
X22485713Y-21554819D01*
X22199999Y-21554819D02*
X22199999Y-20554819D01*
X22199999Y-20554819D02*
X22295237Y-20697676D01*
X22295237Y-20697676D02*
X22390475Y-20792914D01*
X22390475Y-20792914D02*
X22485713Y-20840533D01*
D11*
X51981830Y-21276800D02*
X51905639Y-21314895D01*
X51905639Y-21314895D02*
X51753258Y-21314895D01*
X51753258Y-21314895D02*
X51677068Y-21276800D01*
X51677068Y-21276800D02*
X51638972Y-21200609D01*
X51638972Y-21200609D02*
X51638972Y-21162514D01*
X51638972Y-21162514D02*
X51677068Y-21086323D01*
X51677068Y-21086323D02*
X51753258Y-21048228D01*
X51753258Y-21048228D02*
X51867544Y-21048228D01*
X51867544Y-21048228D02*
X51943734Y-21010133D01*
X51943734Y-21010133D02*
X51981830Y-20933942D01*
X51981830Y-20933942D02*
X51981830Y-20895847D01*
X51981830Y-20895847D02*
X51943734Y-20819657D01*
X51943734Y-20819657D02*
X51867544Y-20781561D01*
X51867544Y-20781561D02*
X51753258Y-20781561D01*
X51753258Y-20781561D02*
X51677068Y-20819657D01*
X51181830Y-21314895D02*
X51258020Y-21276800D01*
X51258020Y-21276800D02*
X51296115Y-21238704D01*
X51296115Y-21238704D02*
X51334211Y-21162514D01*
X51334211Y-21162514D02*
X51334211Y-20933942D01*
X51334211Y-20933942D02*
X51296115Y-20857752D01*
X51296115Y-20857752D02*
X51258020Y-20819657D01*
X51258020Y-20819657D02*
X51181830Y-20781561D01*
X51181830Y-20781561D02*
X51067544Y-20781561D01*
X51067544Y-20781561D02*
X50991353Y-20819657D01*
X50991353Y-20819657D02*
X50953258Y-20857752D01*
X50953258Y-20857752D02*
X50915163Y-20933942D01*
X50915163Y-20933942D02*
X50915163Y-21162514D01*
X50915163Y-21162514D02*
X50953258Y-21238704D01*
X50953258Y-21238704D02*
X50991353Y-21276800D01*
X50991353Y-21276800D02*
X51067544Y-21314895D01*
X51067544Y-21314895D02*
X51181830Y-21314895D01*
X50229448Y-21276800D02*
X50305639Y-21314895D01*
X50305639Y-21314895D02*
X50458020Y-21314895D01*
X50458020Y-21314895D02*
X50534210Y-21276800D01*
X50534210Y-21276800D02*
X50572305Y-21238704D01*
X50572305Y-21238704D02*
X50610401Y-21162514D01*
X50610401Y-21162514D02*
X50610401Y-20933942D01*
X50610401Y-20933942D02*
X50572305Y-20857752D01*
X50572305Y-20857752D02*
X50534210Y-20819657D01*
X50534210Y-20819657D02*
X50458020Y-20781561D01*
X50458020Y-20781561D02*
X50305639Y-20781561D01*
X50305639Y-20781561D02*
X50229448Y-20819657D01*
X49886591Y-21314895D02*
X49886591Y-20514895D01*
X49810401Y-21010133D02*
X49581829Y-21314895D01*
X49581829Y-20781561D02*
X49886591Y-21086323D01*
X48934210Y-21276800D02*
X49010401Y-21314895D01*
X49010401Y-21314895D02*
X49162782Y-21314895D01*
X49162782Y-21314895D02*
X49238972Y-21276800D01*
X49238972Y-21276800D02*
X49277068Y-21200609D01*
X49277068Y-21200609D02*
X49277068Y-20895847D01*
X49277068Y-20895847D02*
X49238972Y-20819657D01*
X49238972Y-20819657D02*
X49162782Y-20781561D01*
X49162782Y-20781561D02*
X49010401Y-20781561D01*
X49010401Y-20781561D02*
X48934210Y-20819657D01*
X48934210Y-20819657D02*
X48896115Y-20895847D01*
X48896115Y-20895847D02*
X48896115Y-20972038D01*
X48896115Y-20972038D02*
X49277068Y-21048228D01*
X48667544Y-20781561D02*
X48362782Y-20781561D01*
X48553258Y-20514895D02*
X48553258Y-21200609D01*
X48553258Y-21200609D02*
X48515163Y-21276800D01*
X48515163Y-21276800D02*
X48438973Y-21314895D01*
X48438973Y-21314895D02*
X48362782Y-21314895D01*
X47372306Y-21314895D02*
X47448496Y-21276800D01*
X47448496Y-21276800D02*
X47486591Y-21238704D01*
X47486591Y-21238704D02*
X47524687Y-21162514D01*
X47524687Y-21162514D02*
X47524687Y-20933942D01*
X47524687Y-20933942D02*
X47486591Y-20857752D01*
X47486591Y-20857752D02*
X47448496Y-20819657D01*
X47448496Y-20819657D02*
X47372306Y-20781561D01*
X47372306Y-20781561D02*
X47258020Y-20781561D01*
X47258020Y-20781561D02*
X47181829Y-20819657D01*
X47181829Y-20819657D02*
X47143734Y-20857752D01*
X47143734Y-20857752D02*
X47105639Y-20933942D01*
X47105639Y-20933942D02*
X47105639Y-21162514D01*
X47105639Y-21162514D02*
X47143734Y-21238704D01*
X47143734Y-21238704D02*
X47181829Y-21276800D01*
X47181829Y-21276800D02*
X47258020Y-21314895D01*
X47258020Y-21314895D02*
X47372306Y-21314895D01*
X46762781Y-20781561D02*
X46762781Y-21314895D01*
X46762781Y-20857752D02*
X46724686Y-20819657D01*
X46724686Y-20819657D02*
X46648496Y-20781561D01*
X46648496Y-20781561D02*
X46534210Y-20781561D01*
X46534210Y-20781561D02*
X46458019Y-20819657D01*
X46458019Y-20819657D02*
X46419924Y-20895847D01*
X46419924Y-20895847D02*
X46419924Y-21314895D01*
X45429447Y-21314895D02*
X45429447Y-20514895D01*
X45429447Y-20819657D02*
X45353257Y-20781561D01*
X45353257Y-20781561D02*
X45200876Y-20781561D01*
X45200876Y-20781561D02*
X45124685Y-20819657D01*
X45124685Y-20819657D02*
X45086590Y-20857752D01*
X45086590Y-20857752D02*
X45048495Y-20933942D01*
X45048495Y-20933942D02*
X45048495Y-21162514D01*
X45048495Y-21162514D02*
X45086590Y-21238704D01*
X45086590Y-21238704D02*
X45124685Y-21276800D01*
X45124685Y-21276800D02*
X45200876Y-21314895D01*
X45200876Y-21314895D02*
X45353257Y-21314895D01*
X45353257Y-21314895D02*
X45429447Y-21276800D01*
X44591352Y-21314895D02*
X44667542Y-21276800D01*
X44667542Y-21276800D02*
X44705637Y-21238704D01*
X44705637Y-21238704D02*
X44743733Y-21162514D01*
X44743733Y-21162514D02*
X44743733Y-20933942D01*
X44743733Y-20933942D02*
X44705637Y-20857752D01*
X44705637Y-20857752D02*
X44667542Y-20819657D01*
X44667542Y-20819657D02*
X44591352Y-20781561D01*
X44591352Y-20781561D02*
X44477066Y-20781561D01*
X44477066Y-20781561D02*
X44400875Y-20819657D01*
X44400875Y-20819657D02*
X44362780Y-20857752D01*
X44362780Y-20857752D02*
X44324685Y-20933942D01*
X44324685Y-20933942D02*
X44324685Y-21162514D01*
X44324685Y-21162514D02*
X44362780Y-21238704D01*
X44362780Y-21238704D02*
X44400875Y-21276800D01*
X44400875Y-21276800D02*
X44477066Y-21314895D01*
X44477066Y-21314895D02*
X44591352Y-21314895D01*
X44096113Y-20781561D02*
X43791351Y-20781561D01*
X43981827Y-20514895D02*
X43981827Y-21200609D01*
X43981827Y-21200609D02*
X43943732Y-21276800D01*
X43943732Y-21276800D02*
X43867542Y-21314895D01*
X43867542Y-21314895D02*
X43791351Y-21314895D01*
X43638970Y-20781561D02*
X43334208Y-20781561D01*
X43524684Y-20514895D02*
X43524684Y-21200609D01*
X43524684Y-21200609D02*
X43486589Y-21276800D01*
X43486589Y-21276800D02*
X43410399Y-21314895D01*
X43410399Y-21314895D02*
X43334208Y-21314895D01*
X42953256Y-21314895D02*
X43029446Y-21276800D01*
X43029446Y-21276800D02*
X43067541Y-21238704D01*
X43067541Y-21238704D02*
X43105637Y-21162514D01*
X43105637Y-21162514D02*
X43105637Y-20933942D01*
X43105637Y-20933942D02*
X43067541Y-20857752D01*
X43067541Y-20857752D02*
X43029446Y-20819657D01*
X43029446Y-20819657D02*
X42953256Y-20781561D01*
X42953256Y-20781561D02*
X42838970Y-20781561D01*
X42838970Y-20781561D02*
X42762779Y-20819657D01*
X42762779Y-20819657D02*
X42724684Y-20857752D01*
X42724684Y-20857752D02*
X42686589Y-20933942D01*
X42686589Y-20933942D02*
X42686589Y-21162514D01*
X42686589Y-21162514D02*
X42724684Y-21238704D01*
X42724684Y-21238704D02*
X42762779Y-21276800D01*
X42762779Y-21276800D02*
X42838970Y-21314895D01*
X42838970Y-21314895D02*
X42953256Y-21314895D01*
X42343731Y-21314895D02*
X42343731Y-20781561D01*
X42343731Y-20857752D02*
X42305636Y-20819657D01*
X42305636Y-20819657D02*
X42229446Y-20781561D01*
X42229446Y-20781561D02*
X42115160Y-20781561D01*
X42115160Y-20781561D02*
X42038969Y-20819657D01*
X42038969Y-20819657D02*
X42000874Y-20895847D01*
X42000874Y-20895847D02*
X42000874Y-21314895D01*
X42000874Y-20895847D02*
X41962779Y-20819657D01*
X41962779Y-20819657D02*
X41886588Y-20781561D01*
X41886588Y-20781561D02*
X41772303Y-20781561D01*
X41772303Y-20781561D02*
X41696112Y-20819657D01*
X41696112Y-20819657D02*
X41658017Y-20895847D01*
X41658017Y-20895847D02*
X41658017Y-21314895D01*
D10*
X74685714Y-21138152D02*
X74685714Y-21804819D01*
X74923809Y-20757200D02*
X75161904Y-21471485D01*
X75161904Y-21471485D02*
X74542857Y-21471485D01*
X73971428Y-20804819D02*
X73876190Y-20804819D01*
X73876190Y-20804819D02*
X73780952Y-20852438D01*
X73780952Y-20852438D02*
X73733333Y-20900057D01*
X73733333Y-20900057D02*
X73685714Y-20995295D01*
X73685714Y-20995295D02*
X73638095Y-21185771D01*
X73638095Y-21185771D02*
X73638095Y-21423866D01*
X73638095Y-21423866D02*
X73685714Y-21614342D01*
X73685714Y-21614342D02*
X73733333Y-21709580D01*
X73733333Y-21709580D02*
X73780952Y-21757200D01*
X73780952Y-21757200D02*
X73876190Y-21804819D01*
X73876190Y-21804819D02*
X73971428Y-21804819D01*
X73971428Y-21804819D02*
X74066666Y-21757200D01*
X74066666Y-21757200D02*
X74114285Y-21709580D01*
X74114285Y-21709580D02*
X74161904Y-21614342D01*
X74161904Y-21614342D02*
X74209523Y-21423866D01*
X74209523Y-21423866D02*
X74209523Y-21185771D01*
X74209523Y-21185771D02*
X74161904Y-20995295D01*
X74161904Y-20995295D02*
X74114285Y-20900057D01*
X74114285Y-20900057D02*
X74066666Y-20852438D01*
X74066666Y-20852438D02*
X73971428Y-20804819D01*
X19096666Y-16734819D02*
X19096666Y-17449104D01*
X19096666Y-17449104D02*
X19049047Y-17591961D01*
X19049047Y-17591961D02*
X18953809Y-17687200D01*
X18953809Y-17687200D02*
X18810952Y-17734819D01*
X18810952Y-17734819D02*
X18715714Y-17734819D01*
X19477619Y-16734819D02*
X20096666Y-16734819D01*
X20096666Y-16734819D02*
X19763333Y-17115771D01*
X19763333Y-17115771D02*
X19906190Y-17115771D01*
X19906190Y-17115771D02*
X20001428Y-17163390D01*
X20001428Y-17163390D02*
X20049047Y-17211009D01*
X20049047Y-17211009D02*
X20096666Y-17306247D01*
X20096666Y-17306247D02*
X20096666Y-17544342D01*
X20096666Y-17544342D02*
X20049047Y-17639580D01*
X20049047Y-17639580D02*
X20001428Y-17687200D01*
X20001428Y-17687200D02*
X19906190Y-17734819D01*
X19906190Y-17734819D02*
X19620476Y-17734819D01*
X19620476Y-17734819D02*
X19525238Y-17687200D01*
X19525238Y-17687200D02*
X19477619Y-17639580D01*
D12*
%TO.C,J3*%
X20870000Y-14680000D02*
X20870000Y-17280000D01*
X20870000Y-14680000D02*
X71790000Y-14680000D01*
X20870000Y-17280000D02*
X23470000Y-17280000D01*
X20870000Y-18550000D02*
X20870000Y-19880000D01*
X20870000Y-19880000D02*
X22200000Y-19880000D01*
X23470000Y-17280000D02*
X23470000Y-19880000D01*
X23470000Y-19880000D02*
X71790000Y-19880000D01*
X71790000Y-14680000D02*
X71790000Y-19880000D01*
%TD*%
M02*
